<?xml version="1.0" standalone="no"?>
<!DOCTYPE svg PUBLIC "-//W3C//DTD SVG 20010904//EN"
 "http://www.w3.org/TR/2001/REC-SVG-20010904/DTD/svg10.dtd">
<svg version="1.0" xmlns="http://www.w3.org/2000/svg"
 width="14.000000pt" height="28.000000pt" viewBox="0 0 14.000000 28.000000"
 preserveAspectRatio="xMidYMid meet">

<g transform="translate(0.000000,28.000000) scale(0.100000,-0.100000)"
fill="#000000" stroke="none">
<path d="M70 273 c-23 -8 -40 -34 -40 -60 0 -14 -6 -23 -15 -23 -10 0 -15 -10
-15 -30 0 -20 5 -30 15 -30 12 0 15 -14 15 -65 l0 -65 35 0 35 0 0 65 c0 58 2
65 20 65 16 0 20 7 20 30 0 23 -4 30 -20 30 -11 0 -20 7 -20 15 0 8 9 15 20
15 16 0 20 7 20 30 0 26 -3 30 -27 29 -16 0 -35 -3 -43 -6z m60 -23 c0 -13 -7
-20 -20 -20 -15 0 -20 -7 -20 -25 0 -18 5 -25 20 -25 26 0 26 -30 0 -37 -16
-4 -20 -15 -22 -67 -3 -55 -5 -61 -25 -64 -22 -3 -23 0 -23 62 0 52 -3 66 -15
66 -8 0 -15 9 -15 20 0 11 7 20 15 20 10 0 15 10 15 29 0 34 30 61 67 61 16 0
23 -6 23 -20z"/>
</g>
</svg>
